<svg width="250" height="75" viewBox="0 0 250 75" fill="none" xmlns="http://www.w3.org/2000/svg">
<path opacity="0.3" d="M74.8005 27.7229C74.8005 17.4254 83.1483 9.07764 93.4458 9.07764H112.091V27.7229H74.8005V27.7229Z" fill="black"/>
<path d="M74.8005 27.7229C74.8005 17.4254 83.1483 9.07764 93.4458 9.07764H112.091V27.7229H74.8005V27.7229Z" fill="black"/>
<rect opacity="0.3" x="56.1553" y="65.0938" width="28.3439" height="18.6453" transform="rotate(-89.9136 56.1553 65.0938)" fill="black"/>
<rect x="56.1553" y="65.0938" width="28.3439" height="18.6453" transform="rotate(-89.9136 56.1553 65.0938)" fill="black"/>
<rect opacity="0.3" x="56.2117" y="27.6553" width="18.497" height="18.6453" transform="rotate(-89.9136 56.2117 27.6553)" fill="black"/>
<rect x="56.0002" y="27.6948" width="18.3062" height="18.8004" transform="rotate(-89.9136 56.0002 27.6948)" fill="black"/>
<path d="M112.089 46.207V27.9502H116.593V31.2973H117.323C117.445 30.6887 117.668 30.1208 117.993 29.5933C118.337 29.0456 118.855 28.6095 119.544 28.2849C120.234 27.9401 121.157 27.7677 122.313 27.7677H123.287V32.2101H121.948C120.224 32.2101 118.966 32.6463 118.175 33.5185C117.404 34.3908 117.019 35.6992 117.019 37.4438V46.207H112.089ZM132.429 46.6635C129.549 46.6635 127.348 45.8013 125.826 44.0771C124.325 42.3528 123.575 40.0099 123.575 37.0482C123.575 35.0602 123.909 33.3563 124.579 31.9363C125.268 30.5163 126.262 29.4209 127.561 28.6501C128.879 27.8792 130.482 27.4938 132.368 27.4938C135.087 27.4938 137.166 28.3154 138.606 29.9585C140.067 31.6016 140.797 34.0155 140.797 37.2003V38.2349H128.382C128.484 39.7766 128.879 40.9937 129.569 41.8863C130.279 42.7585 131.232 43.1947 132.429 43.1947C133.383 43.1947 134.143 42.9107 134.711 42.3427C135.3 41.7747 135.685 41.1154 135.868 40.3649H140.553C140.371 41.4805 139.965 42.5151 139.336 43.4685C138.708 44.4219 137.825 45.1928 136.689 45.781C135.553 46.3693 134.133 46.6635 132.429 46.6635ZM128.382 35.1312H135.989C135.908 33.7518 135.563 32.6868 134.955 31.9363C134.346 31.1654 133.474 30.78 132.338 30.78C131.222 30.78 130.32 31.1452 129.63 31.8754C128.96 32.5854 128.545 33.6707 128.382 35.1312ZM150.883 46.6635C148.002 46.6635 145.801 45.8013 144.28 44.0771C142.779 42.3528 142.028 40.0099 142.028 37.0482C142.028 35.0602 142.363 33.3563 143.032 31.9363C143.722 30.5163 144.716 29.4209 146.014 28.6501C147.333 27.8792 148.935 27.4938 150.822 27.4938C153.54 27.4938 155.619 28.3154 157.06 29.9585C158.52 31.6016 159.251 34.0155 159.251 37.2003V38.2349H146.836C146.937 39.7766 147.333 40.9937 148.023 41.8863C148.733 42.7585 149.686 43.1947 150.883 43.1947C151.836 43.1947 152.597 42.9107 153.165 42.3427C153.753 41.7747 154.139 41.1154 154.321 40.3649H159.007C158.825 41.4805 158.419 42.5151 157.79 43.4685C157.161 44.4219 156.279 45.1928 155.143 45.781C154.007 46.3693 152.587 46.6635 150.883 46.6635ZM146.836 35.1312H154.443C154.362 33.7518 154.017 32.6868 153.408 31.9363C152.8 31.1654 151.928 30.78 150.792 30.78C149.676 30.78 148.773 31.1452 148.083 31.8754C147.414 32.5854 146.998 33.6707 146.836 35.1312ZM161.699 46.207V27.9502H166.263V30.6887H166.994C167.359 29.7759 167.917 29.0152 168.667 28.4066C169.438 27.7981 170.564 27.4938 172.045 27.4938C174.073 27.4938 175.595 28.1328 176.609 29.4108C177.623 30.6887 178.13 32.4231 178.13 34.614V46.207H173.201V35.4355C173.201 34.1778 172.978 33.2143 172.531 32.5448C172.085 31.8551 171.355 31.5103 170.341 31.5103C169.164 31.5103 168.251 31.9769 167.602 32.91C166.953 33.8228 166.628 34.9689 166.628 36.3484V46.207H161.699ZM184.328 46.207C183.861 45.6593 183.486 45.0001 183.202 44.2292C182.938 43.4584 182.807 42.3021 182.807 40.7604V31.419H180.311V27.9502H182.867V23.386H187.706V27.9502H190.657V31.419H187.706V40.2431C187.706 41.8457 187.888 43.0729 188.253 43.9249C188.618 44.7769 189.054 45.4768 189.562 46.0245V46.207H184.328Z" fill="black"/>
</svg>
