<svg width="350" height="75" viewBox="0 0 350 75" fill="none" xmlns="http://www.w3.org/2000/svg">
<g clip-path="url(#clip0_60_253)">
<path opacity="0.3" d="M97.2498 27.25C97.2498 15.0633 107.129 5.18408 119.316 5.18408H141.382V27.25H97.2498V27.25Z" fill="black"/>
<path d="M97.2498 27.25C97.2498 15.0633 107.129 5.18408 119.316 5.18408H141.382V27.25H97.2498V27.25Z" fill="black"/>
<rect opacity="0.3" x="75.1841" y="71.4766" width="33.5439" height="22.0659" transform="rotate(-89.9136 75.1841 71.4766)" fill="black"/>
<rect x="75.1841" y="71.4766" width="33.5439" height="22.0659" transform="rotate(-89.9136 75.1841 71.4766)" fill="black"/>
<rect opacity="0.3" x="75.2505" y="27.1694" width="21.8905" height="22.0659" transform="rotate(-89.9136 75.2505 27.1694)" fill="black"/>
<rect x="75.0005" y="27.2163" width="21.6647" height="22.2495" transform="rotate(-89.9136 75.0005 27.2163)" fill="black"/>
<path d="M141.38 48.7217V27.1154H146.709V31.0766H147.574C147.718 30.3564 147.982 29.6842 148.366 29.06C148.774 28.4118 149.386 27.8957 150.202 27.5116C151.019 27.1034 152.111 26.8994 153.479 26.8994H154.632V32.1569H153.047C151.007 32.1569 149.518 32.6731 148.582 33.7054C147.67 34.7376 147.214 36.2861 147.214 38.3507V48.7217H141.38ZM165.451 49.2618C162.042 49.2618 159.437 48.2415 157.637 46.201C155.86 44.1604 154.972 41.3876 154.972 37.8826C154.972 35.5299 155.368 33.5133 156.16 31.8328C156.977 30.1523 158.153 28.856 159.689 27.9437C161.25 27.0314 163.146 26.5753 165.379 26.5753C168.596 26.5753 171.057 27.5476 172.761 29.4921C174.49 31.4367 175.354 34.2935 175.354 38.0626V39.287H160.662C160.782 41.1115 161.25 42.5519 162.066 43.6082C162.906 44.6405 164.035 45.1567 165.451 45.1567C166.579 45.1567 167.48 44.8206 168.152 44.1484C168.848 43.4762 169.304 42.6959 169.52 41.8077H175.066C174.85 43.1281 174.37 44.3524 173.625 45.4807C172.881 46.6091 171.837 47.5213 170.493 48.2175C169.148 48.9137 167.468 49.2618 165.451 49.2618ZM160.662 35.6139H169.664C169.568 33.9814 169.16 32.7211 168.44 31.8328C167.72 30.9205 166.687 30.4644 165.343 30.4644C164.023 30.4644 162.954 30.8965 162.138 31.7608C161.346 32.601 160.854 33.8854 160.662 35.6139ZM187.29 49.2618C183.881 49.2618 181.277 48.2415 179.476 46.201C177.7 44.1604 176.811 41.3876 176.811 37.8826C176.811 35.5299 177.207 33.5133 178 31.8328C178.816 30.1523 179.992 28.856 181.529 27.9437C183.089 27.0314 184.986 26.5753 187.218 26.5753C190.435 26.5753 192.896 27.5476 194.6 29.4921C196.329 31.4367 197.193 34.2935 197.193 38.0626V39.287H182.501C182.621 41.1115 183.089 42.5519 183.905 43.6082C184.746 44.6405 185.874 45.1567 187.29 45.1567C188.419 45.1567 189.319 44.8206 189.991 44.1484C190.687 43.4762 191.143 42.6959 191.359 41.8077H196.905C196.689 43.1281 196.209 44.3524 195.465 45.4807C194.72 46.6091 193.676 47.5213 192.332 48.2175C190.987 48.9137 189.307 49.2618 187.29 49.2618ZM182.501 35.6139H191.503C191.407 33.9814 190.999 32.7211 190.279 31.8328C189.559 30.9205 188.527 30.4644 187.182 30.4644C185.862 30.4644 184.794 30.8965 183.977 31.7608C183.185 32.601 182.693 33.8854 182.501 35.6139ZM200.091 48.7217V27.1154H205.492V30.3564H206.357C206.789 29.2761 207.449 28.3758 208.337 27.6556C209.249 26.9354 210.582 26.5753 212.334 26.5753C214.735 26.5753 216.536 27.3315 217.736 28.8439C218.936 30.3564 219.536 32.409 219.536 35.0017V48.7217H213.703V35.974C213.703 34.4856 213.439 33.3452 212.911 32.553C212.382 31.7368 211.518 31.3287 210.318 31.3287C208.925 31.3287 207.845 31.8808 207.077 32.9851C206.309 34.0655 205.925 35.4218 205.925 37.0543V48.7217H200.091ZM226.871 48.7217C226.319 48.0735 225.875 47.2933 225.539 46.381C225.227 45.4687 225.071 44.1003 225.071 42.2758V31.2206H222.118V27.1154H225.143V21.7139H230.868V27.1154H234.361V31.2206H230.868V41.6636C230.868 43.5602 231.085 45.0126 231.517 46.0209C231.949 47.0292 232.465 47.8574 233.065 48.5056V48.7217H226.871Z" fill="black"/>
<path d="M236.849 10.6519C236.444 10.6519 236.101 10.5985 235.821 10.4917C235.545 10.3805 235.321 10.2359 235.147 10.0579C234.978 9.87997 234.851 9.68644 234.767 9.47734C234.687 9.26379 234.64 9.05469 234.626 8.85004H235.668C235.676 9.0102 235.725 9.16369 235.814 9.3105C235.903 9.45732 236.037 9.57744 236.215 9.67087C236.393 9.7643 236.615 9.81101 236.882 9.81101C237.171 9.81101 237.385 9.75317 237.523 9.6375C237.665 9.51738 237.736 9.36167 237.736 9.17036C237.736 8.98795 237.674 8.83892 237.549 8.72324C237.429 8.60757 237.269 8.51637 237.069 8.44963L236.315 8.19604C236.075 8.11596 235.843 8.01809 235.621 7.90241C235.403 7.78229 235.223 7.62658 235.08 7.43527C234.938 7.23952 234.867 6.99038 234.867 6.68785C234.867 6.37643 234.945 6.11394 235.1 5.90039C235.26 5.68684 235.478 5.52445 235.754 5.41323C236.035 5.30201 236.355 5.24639 236.715 5.24639C237.178 5.24639 237.543 5.32425 237.81 5.47996C238.077 5.63568 238.27 5.83365 238.39 6.0739C238.515 6.30969 238.59 6.55661 238.617 6.81465H237.576C237.567 6.69008 237.532 6.57218 237.469 6.46096C237.412 6.34528 237.318 6.25186 237.189 6.18067C237.06 6.10949 236.887 6.0739 236.669 6.0739C236.424 6.0739 236.241 6.12506 236.121 6.22739C236.006 6.32971 235.948 6.45873 235.948 6.61444C235.948 6.7835 236.008 6.9192 236.128 7.02152C236.253 7.12385 236.417 7.2106 236.622 7.28179L237.376 7.53538C237.621 7.61546 237.852 7.71556 238.07 7.83568C238.288 7.9558 238.466 8.11596 238.604 8.31616C238.746 8.51192 238.817 8.76996 238.817 9.09028C238.817 9.57522 238.644 9.95782 238.297 10.2381C237.954 10.5139 237.472 10.6519 236.849 10.6519ZM239.796 10.5518L239.188 6.55438V6.54771H240.189L240.663 9.75095H240.823L241.377 6.54771H243.099L243.653 9.75095H243.813L244.287 6.54771H245.221V6.55438L244.614 10.5518H242.852L242.285 7.3285H242.125L241.558 10.5518H239.796ZM245.806 10.5518V6.54771H246.888V10.5518H245.806ZM246.347 6.08724C246.156 6.08724 246.011 6.03831 245.913 5.94043C245.815 5.8381 245.766 5.70686 245.766 5.5467C245.766 5.38654 245.815 5.25752 245.913 5.15964C246.011 5.05731 246.156 5.00615 246.347 5.00615C246.538 5.00615 246.683 5.05731 246.781 5.15964C246.879 5.25752 246.928 5.38654 246.928 5.5467C246.928 5.70686 246.879 5.8381 246.781 5.94043C246.683 6.03831 246.538 6.08724 246.347 6.08724ZM247.719 11.8864V6.54771H248.72V7.06824H248.88C248.973 6.89918 249.109 6.75681 249.287 6.64114C249.465 6.52547 249.703 6.46763 250.001 6.46763C250.366 6.46763 250.666 6.55883 250.902 6.74124C251.138 6.9192 251.313 7.16611 251.429 7.48199C251.545 7.79341 251.603 8.15155 251.603 8.55641C251.603 8.96571 251.543 9.3283 251.422 9.64417C251.307 9.9556 251.129 10.1981 250.889 10.3716C250.653 10.5451 250.357 10.6318 250.001 10.6318C249.743 10.6318 249.529 10.5851 249.36 10.4917C249.191 10.3983 249.058 10.2715 248.96 10.1113H248.8V11.8864H247.719ZM249.694 9.87107C249.939 9.87107 250.13 9.76207 250.268 9.54407C250.41 9.32163 250.481 8.99018 250.481 8.54973C250.481 8.10929 250.41 7.78007 250.268 7.56207C250.13 7.33962 249.939 7.2284 249.694 7.2284C249.423 7.2284 249.205 7.34629 249.04 7.58209C248.88 7.81788 248.8 8.14043 248.8 8.54973C248.8 8.95459 248.88 9.27714 249.04 9.51738C249.205 9.75317 249.423 9.87107 249.694 9.87107ZM253.84 10.6519C253.208 10.6519 252.725 10.4628 252.392 10.0846C252.062 9.70646 251.898 9.19261 251.898 8.54306C251.898 8.10706 251.971 7.73335 252.118 7.42193C252.269 7.1105 252.487 6.87026 252.772 6.7012C253.061 6.53214 253.413 6.44761 253.826 6.44761C254.423 6.44761 254.879 6.62779 255.194 6.98816C255.515 7.34852 255.675 7.87794 255.675 8.57643V8.80332H252.952C252.974 9.14144 253.061 9.40838 253.212 9.60413C253.368 9.79544 253.577 9.89109 253.84 9.89109C254.049 9.89109 254.216 9.8288 254.34 9.70423C254.469 9.57966 254.554 9.43507 254.594 9.27046H255.622C255.582 9.51515 255.493 9.74205 255.355 9.95115C255.217 10.1603 255.023 10.3293 254.774 10.4583C254.525 10.5873 254.213 10.6519 253.84 10.6519ZM252.952 8.12264H254.621C254.603 7.82011 254.527 7.58654 254.394 7.42193C254.26 7.25287 254.069 7.16834 253.82 7.16834C253.575 7.16834 253.377 7.24842 253.226 7.40858C253.079 7.56429 252.988 7.80231 252.952 8.12264ZM256.078 11.5528V11.5127C256.194 11.3214 256.288 11.1457 256.359 10.9855C256.434 10.8254 256.494 10.6808 256.539 10.5518C256.383 10.5162 256.268 10.445 256.192 10.3382C256.116 10.227 256.078 10.0935 256.078 9.9378C256.078 9.75095 256.134 9.59968 256.245 9.48401C256.357 9.36834 256.514 9.3105 256.719 9.3105C256.924 9.3105 257.082 9.37279 257.193 9.49736C257.304 9.62193 257.36 9.80878 257.36 10.0579C257.36 10.2759 257.32 10.5184 257.24 10.7853C257.16 11.0523 257.053 11.3081 256.919 11.5528H256.078ZM261.425 10.6519C261.021 10.6519 260.678 10.5985 260.398 10.4917C260.122 10.3805 259.897 10.2359 259.724 10.0579C259.555 9.87997 259.428 9.68644 259.343 9.47734C259.263 9.26379 259.217 9.05469 259.203 8.85004H260.244C260.253 9.0102 260.302 9.16369 260.391 9.3105C260.48 9.45732 260.614 9.57744 260.791 9.67087C260.969 9.7643 261.192 9.81101 261.459 9.81101C261.748 9.81101 261.962 9.75317 262.099 9.6375C262.242 9.51738 262.313 9.36167 262.313 9.17036C262.313 8.98795 262.251 8.83892 262.126 8.72324C262.006 8.60757 261.846 8.51637 261.646 8.44963L260.892 8.19604C260.651 8.11596 260.42 8.01809 260.198 7.90241C259.98 7.78229 259.799 7.62658 259.657 7.43527C259.515 7.23952 259.443 6.99038 259.443 6.68785C259.443 6.37643 259.521 6.11394 259.677 5.90039C259.837 5.68684 260.055 5.52445 260.331 5.41323C260.611 5.30201 260.932 5.24639 261.292 5.24639C261.755 5.24639 262.119 5.32425 262.386 5.47996C262.653 5.63568 262.847 5.83365 262.967 6.0739C263.092 6.30969 263.167 6.55661 263.194 6.81465H262.153C262.144 6.69008 262.108 6.57218 262.046 6.46096C261.988 6.34528 261.895 6.25186 261.766 6.18067C261.637 6.10949 261.463 6.0739 261.245 6.0739C261.001 6.0739 260.818 6.12506 260.698 6.22739C260.582 6.32971 260.525 6.45873 260.525 6.61444C260.525 6.7835 260.585 6.9192 260.705 7.02152C260.829 7.12385 260.994 7.2106 261.199 7.28179L261.953 7.53538C262.197 7.61546 262.429 7.71556 262.647 7.83568C262.865 7.9558 263.043 8.11596 263.181 8.31616C263.323 8.51192 263.394 8.76996 263.394 9.09028C263.394 9.57522 263.221 9.95782 262.874 10.2381C262.531 10.5139 262.048 10.6519 261.425 10.6519ZM265.68 10.6519C265.049 10.6519 264.566 10.4628 264.232 10.0846C263.903 9.70646 263.739 9.19261 263.739 8.54306C263.739 8.10706 263.812 7.73335 263.959 7.42193C264.11 7.1105 264.328 6.87026 264.613 6.7012C264.902 6.53214 265.253 6.44761 265.667 6.44761C266.263 6.44761 266.719 6.62779 267.035 6.98816C267.355 7.34852 267.516 7.87794 267.516 8.57643V8.80332H264.793C264.815 9.14144 264.902 9.40838 265.053 9.60413C265.209 9.79544 265.418 9.89109 265.68 9.89109C265.89 9.89109 266.056 9.8288 266.181 9.70423C266.31 9.57966 266.395 9.43507 266.435 9.27046H267.462C267.422 9.51515 267.333 9.74205 267.195 9.95115C267.057 10.1603 266.864 10.3293 266.615 10.4583C266.366 10.5873 266.054 10.6519 265.68 10.6519ZM264.793 8.12264H266.461C266.443 7.82011 266.368 7.58654 266.234 7.42193C266.101 7.25287 265.91 7.16834 265.66 7.16834C265.416 7.16834 265.218 7.24842 265.067 7.40858C264.92 7.56429 264.828 7.80231 264.793 8.12264ZM269.728 10.6519C269.096 10.6519 268.613 10.4628 268.28 10.0846C267.95 9.70646 267.786 9.19261 267.786 8.54306C267.786 8.10706 267.859 7.73335 268.006 7.42193C268.157 7.1105 268.375 6.87026 268.66 6.7012C268.949 6.53214 269.301 6.44761 269.714 6.44761C270.31 6.44761 270.767 6.62779 271.082 6.98816C271.403 7.34852 271.563 7.87794 271.563 8.57643V8.80332H268.84C268.862 9.14144 268.949 9.40838 269.1 9.60413C269.256 9.79544 269.465 9.89109 269.728 9.89109C269.937 9.89109 270.104 9.8288 270.228 9.70423C270.357 9.57966 270.442 9.43507 270.482 9.27046H271.509C271.469 9.51515 271.38 9.74205 271.243 9.95115C271.105 10.1603 270.911 10.3293 270.662 10.4583C270.413 10.5873 270.101 10.6519 269.728 10.6519ZM268.84 8.12264H270.508C270.491 7.82011 270.415 7.58654 270.282 7.42193C270.148 7.25287 269.957 7.16834 269.708 7.16834C269.463 7.16834 269.265 7.24842 269.114 7.40858C268.967 7.56429 268.876 7.80231 268.84 8.12264ZM271.966 11.5528V11.5127C272.082 11.3214 272.176 11.1457 272.247 10.9855C272.322 10.8254 272.382 10.6808 272.427 10.5518C272.271 10.5162 272.155 10.445 272.08 10.3382C272.004 10.227 271.966 10.0935 271.966 9.9378C271.966 9.75095 272.022 9.59968 272.133 9.48401C272.244 9.36834 272.402 9.3105 272.607 9.3105C272.812 9.3105 272.97 9.37279 273.081 9.49736C273.192 9.62193 273.248 9.80878 273.248 10.0579C273.248 10.2759 273.208 10.5184 273.128 10.7853C273.048 11.0523 272.941 11.3081 272.807 11.5528H271.966ZM236.849 20.6519C236.444 20.6519 236.101 20.5985 235.821 20.4917C235.545 20.3805 235.321 20.2359 235.147 20.0579C234.978 19.88 234.851 19.6864 234.767 19.4773C234.687 19.2638 234.64 19.0547 234.626 18.85H235.668C235.676 19.0102 235.725 19.1637 235.814 19.3105C235.903 19.4573 236.037 19.5774 236.215 19.6709C236.393 19.7643 236.615 19.811 236.882 19.811C237.171 19.811 237.385 19.7532 237.523 19.6375C237.665 19.5174 237.736 19.3617 237.736 19.1704C237.736 18.988 237.674 18.8389 237.549 18.7232C237.429 18.6076 237.269 18.5164 237.069 18.4496L236.315 18.196C236.075 18.116 235.843 18.0181 235.621 17.9024C235.403 17.7823 235.223 17.6266 235.08 17.4353C234.938 17.2395 234.867 16.9904 234.867 16.6879C234.867 16.3764 234.945 16.1139 235.1 15.9004C235.26 15.6868 235.478 15.5245 235.754 15.4132C236.035 15.302 236.355 15.2464 236.715 15.2464C237.178 15.2464 237.543 15.3243 237.81 15.48C238.077 15.6357 238.27 15.8337 238.39 16.0739C238.515 16.3097 238.59 16.5566 238.617 16.8146H237.576C237.567 16.6901 237.532 16.5722 237.469 16.461C237.412 16.3453 237.318 16.2519 237.189 16.1807C237.06 16.1095 236.887 16.0739 236.669 16.0739C236.424 16.0739 236.241 16.1251 236.121 16.2274C236.006 16.3297 235.948 16.4587 235.948 16.6144C235.948 16.7835 236.008 16.9192 236.128 17.0215C236.253 17.1238 236.417 17.2106 236.622 17.2818L237.376 17.5354C237.621 17.6155 237.852 17.7156 238.07 17.8357C238.288 17.9558 238.466 18.116 238.604 18.3162C238.746 18.5119 238.817 18.77 238.817 19.0903C238.817 19.5752 238.644 19.9578 238.297 20.2381C237.954 20.5139 237.472 20.6519 236.849 20.6519ZM241.104 20.6519C240.472 20.6519 239.989 20.4628 239.656 20.0846C239.326 19.7065 239.162 19.1926 239.162 18.5431C239.162 18.1071 239.235 17.7334 239.382 17.4219C239.533 17.1105 239.751 16.8703 240.036 16.7012C240.325 16.5321 240.677 16.4476 241.09 16.4476C241.687 16.4476 242.143 16.6278 242.458 16.9882C242.779 17.3485 242.939 17.8779 242.939 18.5764V18.8033H240.216C240.238 19.1414 240.325 19.4084 240.476 19.6041C240.632 19.7954 240.841 19.8911 241.104 19.8911C241.313 19.8911 241.48 19.8288 241.604 19.7042C241.733 19.5797 241.818 19.4351 241.858 19.2705H242.886C242.846 19.5152 242.757 19.7421 242.619 19.9512C242.481 20.1603 242.287 20.3293 242.038 20.4583C241.789 20.5873 241.477 20.6519 241.104 20.6519ZM240.216 18.1226H241.885C241.867 17.8201 241.791 17.5865 241.658 17.4219C241.524 17.2529 241.333 17.1683 241.084 17.1683C240.839 17.1683 240.641 17.2484 240.49 17.4086C240.343 17.5643 240.252 17.8023 240.216 18.1226ZM244.063 20.5518C243.961 20.4316 243.879 20.287 243.816 20.118C243.758 19.9489 243.73 19.6953 243.73 19.3572V17.3085H243.182V16.5477H243.743V15.5467H244.804V16.5477H245.451V17.3085H244.804V19.2438C244.804 19.5952 244.844 19.8644 244.924 20.0513C245.004 20.2381 245.1 20.3916 245.211 20.5117V20.5518H244.063ZM246.57 20.5518C246.467 20.4316 246.385 20.287 246.323 20.118C246.265 19.9489 246.236 19.6953 246.236 19.3572V17.3085H245.689V16.5477H246.249V15.5467H247.311V16.5477H247.958V17.3085H247.311V19.2438C247.311 19.5952 247.351 19.8644 247.431 20.0513C247.511 20.2381 247.606 20.3916 247.718 20.5117V20.5518H246.57ZM248.816 20.5518C248.692 20.4094 248.603 20.2492 248.549 20.0713C248.5 19.8889 248.476 19.6508 248.476 19.3572V15.213H249.557V19.2438C249.557 19.5819 249.595 19.8466 249.67 20.0379C249.746 20.2248 249.846 20.3827 249.971 20.5117V20.5518H248.816ZM252.1 20.6519C251.468 20.6519 250.985 20.4628 250.652 20.0846C250.323 19.7065 250.158 19.1926 250.158 18.5431C250.158 18.1071 250.231 17.7334 250.378 17.4219C250.529 17.1105 250.747 16.8703 251.032 16.7012C251.321 16.5321 251.673 16.4476 252.087 16.4476C252.683 16.4476 253.139 16.6278 253.455 16.9882C253.775 17.3485 253.935 17.8779 253.935 18.5764V18.8033H251.212C251.235 19.1414 251.321 19.4084 251.473 19.6041C251.628 19.7954 251.837 19.8911 252.1 19.8911C252.309 19.8911 252.476 19.8288 252.6 19.7042C252.729 19.5797 252.814 19.4351 252.854 19.2705H253.882C253.842 19.5152 253.753 19.7421 253.615 19.9512C253.477 20.1603 253.283 20.3293 253.034 20.4583C252.785 20.5873 252.474 20.6519 252.1 20.6519ZM251.212 18.1226H252.881C252.863 17.8201 252.787 17.5865 252.654 17.4219C252.52 17.2529 252.329 17.1683 252.08 17.1683C251.835 17.1683 251.637 17.2484 251.486 17.4086C251.339 17.5643 251.248 17.8023 251.212 18.1226ZM255.928 20.5518V15.3465H257.05V20.5518H255.928ZM257.89 20.5518V16.5477H258.891V17.1483H259.051C259.131 16.9481 259.253 16.7813 259.418 16.6478C259.587 16.5143 259.834 16.4476 260.159 16.4476C260.604 16.4476 260.937 16.5878 261.16 16.868C261.382 17.1483 261.494 17.5287 261.494 18.0092V20.5518H260.412V18.1894C260.412 17.9135 260.363 17.7022 260.266 17.5554C260.168 17.4041 260.008 17.3285 259.785 17.3285C259.527 17.3285 259.327 17.4308 259.185 17.6355C259.042 17.8357 258.971 18.087 258.971 18.3896V20.5518H257.89Z" fill="black"/>
</g>
<defs>
<clipPath id="clip0_60_253">
<rect width="200.8" height="66.5656" fill="white" transform="translate(75 5)"/>
</clipPath>
</defs>
</svg>
