<svg width="328" height="75" viewBox="0 0 328 75" fill="none" xmlns="http://www.w3.org/2000/svg">
<g clip-path="url(#clip0_61_301)">
<path d="M85.371 61V24.575H94.3558V31.2529H95.8128C96.0557 30.0388 96.5009 28.9055 97.1484 27.8532C97.8364 26.7605 98.8685 25.8903 100.245 25.2428C101.621 24.5548 103.462 24.2108 105.769 24.2108H107.712V33.0742H105.041C101.6 33.0742 99.0911 33.9443 97.5127 35.6846C95.9747 37.4249 95.2058 40.0354 95.2058 43.516V61H85.371ZM125.952 61.9106C120.205 61.9106 115.813 60.1906 112.778 56.7504C109.783 53.3103 108.286 48.6357 108.286 42.7268C108.286 38.7605 108.953 35.3608 110.289 32.5278C111.665 29.6947 113.648 27.5092 116.238 25.9713C118.869 24.4333 122.066 23.6644 125.83 23.6644C131.254 23.6644 135.402 25.3035 138.275 28.5817C141.189 31.86 142.646 36.6762 142.646 43.0303V45.0944H117.877C118.08 48.1703 118.869 50.5986 120.245 52.3794C121.662 54.1197 123.564 54.9899 125.952 54.9899C127.854 54.9899 129.372 54.4233 130.505 53.29C131.678 52.1568 132.447 50.8415 132.812 49.344H142.161C141.797 51.57 140.987 53.6341 139.732 55.5362C138.478 57.4384 136.717 58.9764 134.451 60.1501C132.184 61.3238 129.351 61.9106 125.952 61.9106ZM117.877 38.9022H133.055C132.893 36.1501 132.205 34.0253 130.99 32.5278C129.776 30.9898 128.036 30.2209 125.77 30.2209C123.544 30.2209 121.743 30.9494 120.367 32.4064C119.031 33.8229 118.201 35.9882 117.877 38.9022ZM162.769 61.9106C157.022 61.9106 152.631 60.1906 149.596 56.7504C146.601 53.3103 145.103 48.6357 145.103 42.7268C145.103 38.7605 145.771 35.3608 147.107 32.5278C148.483 29.6947 150.466 27.5092 153.056 25.9713C155.687 24.4333 158.884 23.6644 162.648 23.6644C168.071 23.6644 172.22 25.3035 175.093 28.5817C178.007 31.86 179.464 36.6762 179.464 43.0303V45.0944H154.695C154.898 48.1703 155.687 50.5986 157.063 52.3794C158.479 54.1197 160.382 54.9899 162.769 54.9899C164.672 54.9899 166.189 54.4233 167.323 53.29C168.496 52.1568 169.265 50.8415 169.629 49.344H178.979C178.614 51.57 177.805 53.6341 176.55 55.5362C175.296 57.4384 173.535 58.9764 171.269 60.1501C169.002 61.3238 166.169 61.9106 162.769 61.9106ZM154.695 38.9022H169.872C169.71 36.1501 169.022 34.0253 167.808 32.5278C166.594 30.9898 164.854 30.2209 162.587 30.2209C160.361 30.2209 158.56 30.9494 157.184 32.4064C155.849 33.8229 155.019 35.9882 154.695 38.9022ZM184.349 61V24.575H193.456V30.0387H194.913C195.641 28.2175 196.754 26.6998 198.252 25.4856C199.789 24.2715 202.036 23.6644 204.99 23.6644C209.037 23.6644 212.073 24.9393 214.096 27.489C216.12 30.0388 217.132 33.4991 217.132 37.8701V61H207.297V39.5092C207.297 37 206.852 35.0775 205.961 33.742C205.071 32.3659 203.614 31.6779 201.59 31.6779C199.243 31.6779 197.422 32.6087 196.127 34.4705C194.832 36.2917 194.184 38.5784 194.184 41.3305V61H184.349ZM229.497 61C228.566 59.9072 227.818 58.5919 227.251 57.054C226.725 55.516 226.462 53.2091 226.462 50.1332V31.4958H221.484V24.575H226.583V15.4688H236.236V24.575H242.125V31.4958H236.236V49.1012C236.236 52.2985 236.6 54.747 237.329 56.4469C238.057 58.1467 238.927 59.543 239.939 60.6358V61H229.497Z" fill="black"/>
</g>
<defs>
<clipPath id="clip0_61_301">
<rect width="165.85" height="48" fill="white" transform="translate(81 14)"/>
</clipPath>
</defs>
</svg>
