<svg width="52" height="52" viewBox="0 0 52 52" fill="none" xmlns="http://www.w3.org/2000/svg">
<g filter="url(#filter0_f_41_246)">
<rect width="48" height="48" transform="translate(2 2)" fill="#FFD100"/>
<g clip-path="url(#clip0_41_246)">
<path opacity="0.3" d="M21.0303 20.9047C21.0303 14.9071 25.8922 10.0452 31.8898 10.0452H42.7493V20.9047H21.0303V20.9047Z" fill="#0D0D0D" fill-opacity="0.866667"/>
<path d="M21.0303 20.9047C21.0303 14.9071 25.8922 10.0452 31.8898 10.0452H42.7493V20.9047H21.0303V20.9047Z" fill="#0D0D0D" fill-opacity="0.866667"/>
<rect opacity="0.3" x="10.1709" y="42.6707" width="16.5083" height="10.8595" transform="rotate(-89.9136 10.1709 42.6707)" fill="#0D0D0D" fill-opacity="0.866667"/>
<rect x="10.1709" y="42.6707" width="16.5083" height="10.8595" transform="rotate(-89.9136 10.1709 42.6707)" fill="#0D0D0D" fill-opacity="0.866667"/>
<rect opacity="0.3" x="10.2041" y="20.8652" width="10.7732" height="10.8595" transform="rotate(-89.9136 10.2041 20.8652)" fill="#0D0D0D" fill-opacity="0.866667"/>
<rect x="10.0811" y="20.8882" width="10.662" height="10.9499" transform="rotate(-89.9136 10.0811 20.8882)" fill="#0D0D0D" fill-opacity="0.866667"/>
</g>
</g>
<defs>
<filter id="filter0_f_41_246" x="0" y="0" width="52" height="52" filterUnits="userSpaceOnUse" color-interpolation-filters="sRGB">
<feFlood flood-opacity="0" result="BackgroundImageFix"/>
<feBlend mode="normal" in="SourceGraphic" in2="BackgroundImageFix" result="shape"/>
<feGaussianBlur stdDeviation="1" result="effect1_foregroundBlur_41_246"/>
</filter>
<clipPath id="clip0_41_246">
<rect width="32.7596" height="32.7596" fill="white" transform="translate(10 10)"/>
</clipPath>
</defs>
</svg>
