<svg width="48" height="48" viewBox="0 0 48 48" fill="none" xmlns="http://www.w3.org/2000/svg">
<g filter="url(#filter0_f_47_179)">
<rect width="48" height="48" fill="url(#paint0_linear_47_179)"/>
<g clip-path="url(#clip0_47_179)">
<path opacity="0.3" d="M19.0303 18.9047C19.0303 12.9071 23.8922 8.04517 29.8898 8.04517H40.7493V18.9047H19.0303V18.9047Z" fill="black"/>
<path d="M19.0303 18.9047C19.0303 12.9071 23.8922 8.04517 29.8898 8.04517H40.7493V18.9047H19.0303V18.9047Z" fill="black"/>
<rect opacity="0.3" x="8.1709" y="40.6707" width="16.5083" height="10.8595" transform="rotate(-89.9136 8.1709 40.6707)" fill="black"/>
<rect x="8.1709" y="40.6707" width="16.5083" height="10.8595" transform="rotate(-89.9136 8.1709 40.6707)" fill="black"/>
<rect opacity="0.3" x="8.2041" y="18.8652" width="10.7732" height="10.8595" transform="rotate(-89.9136 8.2041 18.8652)" fill="black"/>
<rect x="8.08105" y="18.8882" width="10.662" height="10.9499" transform="rotate(-89.9136 8.08105 18.8882)" fill="black"/>
</g>
</g>
<defs>
<filter id="filter0_f_47_179" x="-2" y="-2" width="52" height="52" filterUnits="userSpaceOnUse" color-interpolation-filters="sRGB">
<feFlood flood-opacity="0" result="BackgroundImageFix"/>
<feBlend mode="normal" in="SourceGraphic" in2="BackgroundImageFix" result="shape"/>
<feGaussianBlur stdDeviation="1" result="effect1_foregroundBlur_47_179"/>
</filter>
<linearGradient id="paint0_linear_47_179" x1="24" y1="0" x2="24" y2="48" gradientUnits="userSpaceOnUse">
<stop offset="0.278846" stop-opacity="0"/>
<stop offset="0.778846" stop-color="#666666" stop-opacity="0"/>
</linearGradient>
<clipPath id="clip0_47_179">
<rect width="32.7596" height="32.7596" fill="white" transform="translate(8 8)"/>
</clipPath>
</defs>
</svg>
